<svg xmlns="http://www.w3.org/2000/svg" width="54" height="42" fill="none" viewBox="0 0 54 42">
  <path fill="#9F54BF" d="M.864 39.02a1.5 1.5 0 0 0 2.272 1.96L.864 39.02Zm25.425-27.187 1.497.107a1.5 1.5 0 0 0-2.633-1.087l1.137.98Zm-1.493 20.926-1.497-.107a1.5 1.5 0 0 0 2.616 1.105l-1.12-.998ZM54 0 37.554 5.434 50.483 16.96 54 0ZM3.136 40.98l24.29-28.167-2.272-1.96L.864 39.02l2.272 1.96Zm21.657-29.254L23.3 32.652l2.993.213 1.494-20.925-2.993-.214Zm1.122 22.03 20.221-22.68-2.24-1.997-20.22 22.681 2.24 1.997Z"/>
</svg>
