<svg xmlns="http://www.w3.org/2000/svg" width="65" height="65" fill="none" viewBox="0 0 65 65">
  <path fill="#989898" d="M21.125 5.417h22.75c8.667 0 15.708 7.041 15.708 15.708v22.75a15.708 15.708 0 0 1-15.708 15.708h-22.75c-8.667 0-15.708-7.041-15.708-15.708v-22.75A15.708 15.708 0 0 1 21.125 5.417Zm-.542 5.416a9.75 9.75 0 0 0-9.75 9.75v23.834c0 5.39 4.36 9.75 9.75 9.75h23.834a9.75 9.75 0 0 0 9.75-9.75V20.583c0-5.39-4.36-9.75-9.75-9.75H20.583Zm26.136 4.063a3.385 3.385 0 1 1 0 6.77 3.385 3.385 0 0 1 0-6.77ZM32.5 18.958a13.542 13.542 0 1 1 0 27.084 13.542 13.542 0 0 1 0-27.084Zm0 5.417a8.125 8.125 0 1 0 0 16.25 8.125 8.125 0 0 0 0-16.25Z"/>
</svg>
