
<svg xmlns="http://www.w3.org/2000/svg" width="508" height="506" fill="white" viewBox="0 0 508 506">
  <circle xmlns="http://www.w3.org/2000/svg" fill="transparent" cy="253" cx="254" stroke="white" r="215" stroke-width="70"/> 
  <path fill="#9F54BF" d="M262.783 505.988C111.835 505.814-1.119 390.258.008 250.835 1.148 111.907 115.403-1.691 256.29.019c70.598.855 131.046 26.73 180.305 77.24 47.71 48.936 71.701 108.517 71.403 176.537-.31 70.375-26.209 131.158-76.955 180.367-49.159 47.672-108.691 70.858-168.259 71.837v-.012Zm188.793-253.084c0-108.294-87.885-196.464-195.894-196.526-108.976-.062-197.047 87.687-197.109 196.39-.062 108.431 87.836 196.575 196.043 196.6 109.026.025 196.972-87.699 196.972-196.451l-.012-.013Zm2.863-.867h50.349c-.36-45.033-11.773-86.757-34.537-125.718l-43.335 25.491c18.092 31.079 27.151 64.451 27.51 100.227h.013ZM3.218 255.135c.582 44.054 11.723 84.836 33.62 122.805 15.192-8.934 29.988-17.646 44.933-26.444-16.902-29.977-25.49-62.06-26.048-96.374H3.218v.013Zm451.183 0c-.285 17.287-2.589 34.177-7.15 50.733-4.56 16.568-11.19 32.269-19.901 47.35 14.511 8.377 28.91 16.692 43.545 25.144 22.108-38.242 33.298-79.186 33.855-123.227h-50.361.012ZM425.9 355.709c-18.601 30.348-43.261 54.141-74.192 71.589 8.439 14.598 16.742 28.973 25.131 43.496 38.775-22.07 69.483-51.873 92.606-89.929-14.548-8.402-28.861-16.668-43.533-25.144l-.012-.012Zm-176.612 96.423c-33.806-1.116-65.307-10.075-94.626-26.99-8.6 14.957-17.052 29.654-25.59 44.475 37.536 21.215 77.413 32.207 120.216 33.062v-50.547ZM124.214 39.079C87.571 61.47 58.586 90.89 36.862 127.819c15.206 8.773 30.126 17.386 45.157 26.06 16.915-29.084 39.494-52.418 67.872-70.337-8.588-14.87-17.077-29.555-25.689-44.463h.012Zm27.982 384.6c-28.849-17.646-51.75-40.869-69-69.668a60804.557 60804.557 0 0 0-44.908 26.445c22.256 36.767 51.538 65.839 88.306 87.711 8.55-14.858 16.989-29.506 25.614-44.488h-.012Zm222.128 48.503c-8.476-14.672-16.791-29.059-25.156-43.533-30.386 16.147-62.543 23.743-96.634 23.619v50.461c43.187.136 83.597-9.976 121.79-30.547Zm4.349-436.114a131857.5 131857.5 0 0 0-25.056 43.545c14.858 8.6 28.216 18.6 40.299 30.336 12.132 11.773 22.553 24.921 31.538 39.395 14.548-8.563 28.861-16.99 43.322-25.503-22.702-36.953-52.592-66.038-90.103-87.773ZM152.381 82.067c14.871-8.885 30.374-15.7 46.756-20.484 16.37-4.771 33.112-7.336 50.151-7.919V3.104c-43.893.967-84.614 12.393-122.595 34.488 8.612 14.92 17.101 29.617 25.676 44.475h.012ZM252.472 53.64c35.095-.31 67.835 7.856 98.629 24.548 8.389-14.573 16.667-28.96 25.069-43.546-38.725-21.227-79.78-31.736-123.698-31.537V53.64ZM55.711 252.099c.347-33.942 8.5-65.777 24.908-95.704-15.094-8.712-30.063-17.349-45.02-25.986-5.478 8.054-17.746 35.552-18.204 40.385 2.02.843 3.915 1.648 5.923 2.491 4.523-2.999 7.1-2.875 11.524.136 2.776-.83 4.982-2.019 7.175-2.007 2.305.012 4.598 1.19 6.767 1.834 1.276-.595 2.614-1.611 4.077-1.859 4.845-.818 8.711 2.528 8.934 7.795.186 4.424.248 8.885-.074 13.284-.446 5.923-2.466 11.215-8.513 13.607-2.008.793-2.863 1.685-2.553 3.792.235 1.561-.706 1.933-2.094 1.945-1.4 0-2.219-.359-2.107-1.933.05-.669-.124-1.363-.186-2.032-.26.161-.508.309-.768.471-.707-.893-2.045-1.847-1.97-2.665.086-1.041 1.325-1.97 2.069-2.961.285.148.582.309.867.458v-21.773c0-4.089-1.598-6.307-4.486-6.283-2.9.025-4.473 2.231-4.486 6.32v4.784c0 5.316-.062 10.644.038 15.961.037 1.834-.707 2.255-2.367 2.205-1.86-.049-1.871-1.189-1.86-2.515 0-7.361.038-14.722-.011-22.07-.025-2.776-1.921-4.709-4.375-4.685-2.317.013-4.127 1.896-4.312 4.511-.05.793-.025 1.599-.025 2.392 0 6.654-.05 13.296.037 19.951.025 1.908-.719 2.466-2.515 2.416-1.946-.062-1.748-1.338-1.76-2.577 0-7.361.099-14.722-.087-22.07-.037-1.5-.954-3.061-1.747-4.424-.471-.806-1.5-1.289-2.305-1.934C7.69 198.701 3.28 224.972 3.28 252.124h52.443l-.012-.025Zm-5.007-49.717c3.544-1.19 5.911-3.544 6.308-7.436.545-5.353.57-10.768.545-16.146 0-1.909-1.016-3.706-3.395-3.681-2.479.037-3.408 1.797-3.433 3.916-.087 7.695-.037 15.391-.037 23.359l.012-.012Z"/>
  <path fill="#9F54BF" d="M468.702 185.553c2.193-3.234 5.043-5.018 8.959-4.783 5.081.297 8.724 4.139 8.873 9.443.161 5.849-3.272 10.099-8.575 10.57-1.141.099-2.405.36-2.516-1.437-.087-1.413.173-2.194 1.908-2.441 3.668-.521 5.527-3.557 4.92-7.46-.496-3.21-2.788-5.069-5.911-4.809-2.615.223-4.87 2.442-5.267 5.837-.384 3.321-.334 6.704-.384 10.075a350.912 350.912 0 0 0 0 11.425c.037 1.599-.545 2.206-2.156 2.194-1.636 0-2.132-.682-2.119-2.256.062-6.282.149-12.578-.05-18.86-.062-2.033-.718-4.177-1.648-6.011-1.177-2.329-3.519-2.887-5.973-2.218-2.292.632-3.445 2.355-3.717 4.672-.484 4.313 1.102 6.717 5.204 7.435 1.698.298 1.884 1.326 1.549 2.417-.198.632-1.264 1.4-1.958 1.412-3.965.1-7.708-2.936-8.749-6.877-1.301-4.957.509-9.839 4.474-12.033 3.693-2.045 8.575-1.301 11.475 1.76.533.57 1.016 1.189 1.636 1.908l.025.037ZM29.65 308.185c-3.383-7.038-2.875-11.946 1.413-15.366 4.114-3.271 10.843-3.209 14.82.137 4.19 3.519 4.66 8.662 1.178 15.229 2.95 0 5.725.038 8.5-.012 1.401-.025 2.417.111 2.405 1.933-.013 1.909-1.215 1.809-2.503 1.809-4.25-.012-8.501.038-12.752-.049-.83-.013-2.367-.657-2.342-.88.112-1.103.483-2.268 1.066-3.222 1.115-1.809 2.962-3.346 3.544-5.279 1.066-3.532-.545-6.37-3.569-7.621-3.222-1.338-7.063-.36-8.835 2.243-1.76 2.59-1.364 6.766.916 9.083.682.682 1.735 1.066 2.231 1.847.508.793.806 1.933.682 2.85-.05.421-1.302.979-2.02.991-4.511.087-9.034.025-13.557.05-1.227 0-1.995-.248-2.02-1.748-.025-1.536.607-2.019 2.057-1.995 2.887.062 5.762.013 8.773.013l.013-.013Zm8.86 11.215c5.663 0 11.327.013 16.99 0 1.363 0 2.441.062 2.453 1.884.013 1.871-1.127 1.859-2.453 1.859a15040.76 15040.76 0 0 0-34.252 0c-1.301 0-2.454.074-2.441-1.859.012-1.871 1.09-1.896 2.441-1.884 5.75.025 11.512 0 17.262 0Zm417.602 12.442a7855.34 7855.34 0 0 0 3.159-13.904c-2.218-.112-3.866-.186-5.477-.26-.619-1.934 1.177-3.301 5.391-4.102-1.029-4.536-2.045-9.046-3.098-13.669 2.094-1.338 3.581-1.078 4.337 1.425 1.202 4.053 2.069 8.204 3.135 12.529h9.616c.521-2.888.992-5.812 1.587-8.724.247-1.202.669-2.392 1.103-3.544.991-2.615 1.747-2.888 4.51-1.822-1.028 4.598-2.057 9.183-2.974 13.284 1.896 2.181 5.837-1.103 5.7 2.95-.123 3.618-3.643.446-5.601 2.937.831 3.668 1.847 8.228 2.9 12.875-2.243 1.252-3.618.991-4.362-1.524-1.202-4.04-2.069-8.191-3.123-12.467h-9.368c-.954 4.114-1.748 8.179-2.875 12.132-.806 2.85-1.884 3.111-4.536 1.884h-.024Zm-25.863 86.707c.05-.409.136.05-.049.273-1.834 2.193-3.507 4.61-5.664 6.444-2.218 1.883-5.365.818-7.261-1.946-2.049-2.982-4.106-2.978-6.172.013-2.59 3.742-6.691 3.692-9.306-.112-3.036-4.424-2.999-4.399-6.06-.012-.681.979-1.648 1.896-2.701 2.416-.645.322-1.686-.161-2.553-.273.136-.991 0-2.156.471-2.936.781-1.314 2.082-2.293 2.962-3.569 2.788-4.09 7.187-4.325 9.554-.025 2.317 4.201 3.631 4.349 6.047-.025 2.355-4.275 7.051-4.188 9.455.136 2.206 3.953 3.594 4.474 5.862-.037.582-1.152 1.883-2.082 3.061-2.751 1.586-.904 2.54-.26 2.354 2.417v-.013Zm-.26-15.539c.557 1.858.557 3.16-1.252 4.213-.892.52-1.326 1.822-1.945 2.788-2.714 4.189-7.163 4.387-9.567.112-2.156-3.842-3.309-4.883-6.01-.025-2.404 4.325-7.076 4.3-9.48-.099-2.28-4.152-3.693-4.313-5.862 0-.582 1.165-1.883 2.082-3.061 2.763-.508.298-2.156-.149-2.193-.446-.149-.929-.062-2.107.409-2.9.731-1.239 1.995-2.156 2.801-3.37 2.862-4.288 7.224-4.523 9.74-.112 2.156 3.767 3.185 4.709 5.849 0 2.454-4.325 6.84-4.238 9.579-.124.198.298.372.607.545.905 2.057 3.37 2.677 3.358 4.746-.05 1.264-2.094 2.59-4.102 5.701-3.68v.025Zm-225.127 56.718c-3.631 3.618-7.051 7.014-10.794 10.744 1.326 1.227 2.789 2.615 4.3 3.965 1.078.967 1.165 1.797.075 2.875-1.041 1.029-1.884 1.537-3.036.174-1.314-1.562-2.702-3.049-4.288-4.821-3.569 3.631-6.766 6.903-9.988 10.162-1.793 1.809-3.594 1.553-5.403-.768 4.102-3.755 8.266-7.572 12.95-11.86a4357.384 4357.384 0 0 1-7.374-5.874c1.624-1.251 2.578-1.982 3.755-2.887 1.884 1.735 3.854 3.569 5.837 5.403 3.482-3.594 6.853-7.076 10.434-10.781-1.884 0-3.78-.074-5.663.025-1.611.086-2.194-.521-2.206-2.144 0-1.723.806-2.07 2.305-2.045 3.718.062 7.448.075 11.165 0 1.574-.025 2.256.521 2.231 2.144a335.123 335.123 0 0 0 0 11.165c.025 1.686-.768 2.082-2.293 2.082-1.524 0-2.057-.632-2.007-2.069.049-1.822.012-3.644.012-5.478l-.012-.012ZM79.033 90.097c-.174-2.007-.52-3.94-.471-5.861.148-4.92 3.432-8.514 8.08-9.047 5.068-.594 8.934 1.86 10.371 6.692 1.277 4.3.794 8.563-.334 12.838-1.078 4.09-2.317 8.192-2.85 12.368-.62 4.795 1.127 5.911 5.725 4.362.235-.075.508 0 .756 0 .979 3.073.322 4.201-2.603 4.572-4.795.595-8.674-2.949-8.215-8.03.334-3.668 1.524-7.237 2.156-10.892.694-4.065 1.561-8.167 1.66-12.269.1-4.014-2.268-6.01-5.688-5.774-3.296.235-5.291 2.677-4.796 6.617.41 3.222 1.612 6.345 2.082 9.567.335 2.305.533 4.845-.074 7.026-1.252 4.449-5.899 6.741-10.608 5.775-4.275-.88-7.323-5.155-6.927-9.715.384-4.424 4.164-8.018 8.662-8.216.967-.038 1.933 0 3.074 0v-.013Zm2.193 8.984c-.05-2.949-2.156-5.068-4.97-5.006-2.738.062-4.845 2.38-4.783 5.254.062 2.85 2.318 5.131 5.02 5.056 2.725-.074 4.782-2.367 4.733-5.304Zm-1.153 293.965c4.908-3.098 8.03-2.974 12.306.719 2.082-2.193 4.696-3.197 7.77-2.788 4.498.607 7.348 3.928 7.422 8.922.1 6.023.05 12.058.013 18.093 0 2.069.334 4.052 2.441 4.882 2.169.855 4.176.298 5.7-1.586-.421-.768-.83-1.5-1.561-2.825 2.466 0 4.436-.05 6.407.049.359.013.954.644.966 1.016.1 1.983.05 3.966.05 6.457-1.276-.769-1.983-1.19-2.64-1.599-1.202.682-2.305 1.45-3.507 1.958-5.997 2.515-11.809-1.14-12.02-7.634-.124-3.544-.025-7.088-.025-10.644v-7.188c-.024-3.928-1.573-6.035-4.424-6.06-2.875-.024-4.523 2.12-4.547 5.961-.013 4.883 0 9.753 0 14.635v7.832c-4.003.793-4.19.657-4.19-2.875v-20.224c0-3.296-1.61-5.267-4.262-5.316-2.776-.062-4.449 1.921-4.461 5.39-.025 6.915-.025 13.83 0 20.757 0 1.574-.074 2.702-2.194 2.714-2.255 0-2.081-1.338-2.081-2.801 0-6.914.037-13.829-.013-20.744-.025-2.243.335-4.721-2.763-5.614-.421-.123-.694-1.759-.508-2.577.099-.421 1.45-.954 2.057-.781 1.4.409 2.689 1.202 4.102 1.871h-.038Zm220.468 81.801c2.107-6.531 3.99-12.38 5.986-18.601a795.742 795.742 0 0 1 4.25 2.763c1.71-2.119 3.073-4.374 4.994-5.935 1.029-.843 3.048-.769 4.573-.632 2.85.247 5.217 3.036 5.477 5.997.335 3.842-1.376 6.073-6.072 7.708 1.462 1.933 2.974 3.73 4.263 5.688 4.449 6.717 1.165 15.243-6.494 16.99-3.184.731-3.655.248-3.147-3.346.619-.136 1.288-.285 1.958-.446 4.238-.992 6.84-5.267 4.895-9.17-2.714-5.44-6.258-10.422-12.541-13.136-2.59 8.055-5.118 15.949-7.646 23.842l-.868-.037c-.309-.657-.694-1.301-.917-1.982-3.197-9.666-6.344-19.344-9.604-28.973-.57-1.673-.223-2.367 1.388-2.937 1.686-.595 2.206.198 2.652 1.561 2.169 6.63 4.387 13.26 6.853 20.67v-.024Zm17.708-12.826c2.367 0 3.383-1.091 3.359-2.95-.025-1.673-.954-2.974-2.764-2.936-1.958.037-2.701 1.4-2.701 3.234 0 1.66.595 2.763 2.106 2.639v.013Zm96.039-376.373c6.295 5.676 7.064 12.578 2.169 17.56-4.573 4.647-11.574 4.56-16.098-.198-4.795-5.044-3.965-11.797 2.33-17.312-2.986-3.42-4.845-8.142-10.93-8.13.137-1.338-.173-2.986.471-3.543.694-.595 2.33-.397 3.458-.137 3.494.818 5.712 3.371 7.782 6.085 4.51 5.91 5.626 5.91 10.124-.062 2.355-3.11 4.969-5.837 9.096-6.32 1.041-.124 2.478-.582 2.602 1.276.099 1.463.124 2.578-1.97 2.987-1.772.347-3.519 1.549-4.92 2.788-1.549 1.388-2.689 3.247-4.102 5.006h-.012Zm-5.737 2.627c-3.904-.024-6.965 3.074-7.002 7.114-.037 3.99 3.048 7.274 6.878 7.311 3.854.037 6.914-3.135 6.939-7.175.025-4.14-2.875-7.225-6.815-7.25ZM167.995 47.419c6.816 2.813 13.594 4.907 20.794 4.362-.619-2.206-1.561-4.25-1.722-6.357-.322-4.511 2.85-8.415 7.1-9.245 4.437-.88 8.712 1.4 10.36 5.515 1.624 4.052.285 9.17-3.643 11.115-3.098 1.525-6.655 2.454-10.1 2.85-7.261.818-14.25-.793-21.017-3.42-2.379-.93-2.639-2.478-1.784-4.795l.012-.025Zm32.939-2.367c0-2.912-2.157-5.205-4.908-5.18-2.714.025-4.882 2.392-4.845 5.254.05 2.751 2.169 4.982 4.783 5.031 2.751.05 4.957-2.218 4.957-5.117l.013.012Zm3.73-14.412c-6.767-2.553-13.52-4.362-20.918-3.99.607 1.35 1.202 2.416 1.598 3.544 1.549 4.51-.619 9.344-4.969 11.264-4.362 1.921-9.629.037-11.834-4.238-2.082-4.027-.756-9.281 3.345-11.574 2.256-1.264 4.895-2.12 7.46-2.503 7.956-1.19 15.689.062 23.248 2.689 2.255.78 3.123 2.107 2.07 4.808Zm-23.013 2.64c0-2.64-2.23-4.945-4.795-5.007-2.689-.062-5.032 2.293-5.032 5.044 0 2.75 2.38 5.105 5.056 5.018 2.553-.086 4.784-2.44 4.771-5.056Zm132.608-9.617v24.289c1.475.148 2.863.359 4.251.409 1.573.05 1.896.941 1.846 2.28-.062 1.5-.917 1.685-2.156 1.512-9.096-1.252-18.192-1.203-27.3-.075-.657.087-1.871-.595-2.057-1.177-.421-1.264-.062-2.441 1.673-2.615 1.388-.148 3.519-.062 3.941-.83.718-1.314.433-3.234.446-4.895.037-5.316.012-10.632.012-15.96v-2.9c-1.71-.273-3.197-.248-4.449-.794-.768-.334-1.165-1.524-1.735-2.33.756-.446 1.562-1.363 2.256-1.288 9.021 1.028 18.03 1.078 27.052-.062 1.115-.137 2.181-.273 2.317 1.326.124 1.437-.248 2.404-1.933 2.515-1.314.087-2.615.372-4.164.595Zm-4.399.434h-10.533V47.32h10.533V24.097Z"/>
</svg>
