<svg xmlns="http://www.w3.org/2000/svg" width="65" height="65" fill="none" viewBox="0 0 65 65">
  <path fill="#989898" d="M5.818 31.985c14.21-6.19 23.686-10.273 28.429-12.247 13.539-5.63 16.35-6.608 18.184-6.64.406-.009 1.305.092 1.89.568.493.398.628.94.693 1.32.065.378.147 1.242.082 1.917-.732 7.71-3.908 26.417-5.525 35.05-.683 3.652-2.026 4.876-3.332 4.998-2.83.26-4.977-1.869-7.718-3.667-4.293-2.814-6.717-4.566-10.882-7.31-4.813-3.171-1.693-4.916 1.05-7.765.718-.745 13.19-12.09 13.434-13.119.027-.13.057-.61-.228-.861-.284-.255-.704-.168-1.01-.098-.431.098-7.285 4.628-20.562 13.59-1.948 1.337-3.71 1.988-5.286 1.953-1.742-.038-5.092-.983-7.578-1.793-3.055-.993-5.482-1.516-5.27-3.203.11-.878 1.32-1.775 3.629-2.693Z"/>
</svg>
